# xmcd CD database file
#
# Track frame offsets:
#	150
#	22373
#	48316
#	68976
#	87488
#	111225
#	132835
#	153799
#	181031
#	203778
#
# Disc length: 2997 seconds
#
# Revision: 1
# Processed by: cddbd v1.5.2PL0 Copyright (c) Steve Scherf et al.
# Submitted via: CDex 1.51
#
DISCID=860bb30a
DTITLE=Mads Kjølby - DETOUR
DYEAR=2010
DGENRE=Jazz
TTITLE0=So you claim
TTITLE1=Scratch my back
TTITLE2=Juicy green
TTITLE3=God only knows
TTITLE4=Always a 'Riesen'
TTITLE5=Big game hunter's daughter
TTITLE6=Its not you it's me
TTITLE7=Ballad for a heavyweight champion
TTITLE8=Test control
TTITLE9=Jill's Jive
EXTD=YEAR: 2010
EXTT0=
EXTT1=
EXTT2=
EXTT3=
EXTT4=
EXTT5=
EXTT6=
EXTT7=
EXTT8=
EXTT9=
PLAYORDER=
